# xmcd
#
# Track frame offsets: 
#        150
#        39160
#        61167
#        104875
#        140792
#
# Disc length: 2435 seconds
#
# Revision: 4
# Processed by: cddbd v1.5.2PL0 Copyright (c) Steve Scherf et al.
# Submitted via: ExactAudioCopy v0.95b4
#
DISCID=45098105
DTITLE=Jack DeJohnette - Zebra
DYEAR=1985
DGENRE=Contemporary Jazz
TTITLE0=NToro I
TTITLE1=Jongo
TTITLE2=Aho
TTITLE3=Kpledzo
TTITLE4=NToro II
EXTD=
EXTT0=
EXTT1=
EXTT2=
EXTT3=
EXTT4=
PLAYORDER=
